 <svg version="1.0" xmlns="http://www.w3.org/2000/svg"  width="900.000000pt" height="831.000000pt" viewBox="0 0 900.000000 831.000000"  preserveAspectRatio="xMidYMid meet">  <g transform="translate(0.000000,831.000000) scale(0.100000,-0.100000)" fill="#ffffff" stroke="none"> <path d="M1340 7641 c-371 -7 -350 -4 -490 -69 -238 -109 -402 -321 -455 -584 -13 -68 -15 -375 -15 -2598 0 -2461 0 -2522 19 -2608 47 -207 139 -356 298 -483 42 -34 110 -77 152 -96 153 -72 36 -66 1496 -72 1444 -7 1345 -2 1373 -64 15 -36 16 -138 0 -174 -27 -63 -103 -147 -238 -264 -79 -68 -381 -298 -415 -316 -11 -6 -97 -13 -191 -16 -191 -6 -218 -13 -253 -70 -25 -42 -29 -137 -6 -160 12 -12 100 -16 537 -21 828 -11 3325 -3 3338 10 22 22 29 84 14 127 -33 95 -64 107 -278 114 -94 3 -180 10 -191 16 -32 17 -334 245 -410 310 -108 93 -202 194 -225 243 -16 32 -22 63 -22 111 0 84 14 120 49 134 18 7 479 13 1343 18 1215 7 1319 9 1370 25 282 91 491 310 566 591 17 67 18 174 21 2520 4 2452 1 2705 -31 2806 -14 44 -64 154 -89 194 -48 78 -147 180 -227 235 -59 40 -201 110 -224 110 -7 0 -31 8 -52 17 -36 15 -265 17 -3229 18 -1754 1 -3345 -1 -3535 -4z m6722 -347 c15 -8 33 -14 40 -14 7 0 43 -20 78 -44 73 -49 132 -119 182 -216 l33 -65 0 -2176 c0 -2089 -1 -2178 -18 -2197 -23 -25 -68 -34 -175 -33 -92 0 -146 13 -159 39 -4 9 -10 969 -13 2132 -5 2070 -5 2116 -24 2153 -39 74 25 70 -1276 80 -1530 11 -3478 11 -4620 1 -855 -8 -927 -10 -957 -27 -18 -9 -37 -26 -43 -38 -24 -44 -29 -406 -33 -2304 -3 -1083 -8 -1978 -12 -1988 -13 -32 -48 -41 -180 -45 -124 -4 -131 -3 -150 18 -20 22 -20 38 -23 2149 -2 1557 0 2144 9 2194 25 149 129 291 264 357 l70 35 2380 5 c3213 7 4591 2 4627 -16z m-1085 -673 c614 -1 693 -3 707 -17 14 -14 16 -210 16 -2009 0 -1947 0 -1993 -19 -2016 l-19 -24 -3094 0 c-1701 0 -3105 3 -3120 8 -15 4 -29 16 -33 26 -3 11 -6 913 -7 2004 0 1482 2 1989 11 2005 11 20 20 22 144 24 123 3 3876 2 5414 -1z m1399 -4413 c36 -35 30 -321 -9 -424 -49 -131 -147 -233 -282 -294 l-67 -30 -3474 0 -3474 0 -72 38 c-92 48 -180 129 -223 206 -49 89 -65 172 -65 340 0 183 -9 174 170 178 74 2 1787 3 3807 3 3438 0 3673 -1 3689 -17z m-3348 -1101 c8 -6 12 -42 12 -111 1 -211 50 -307 267 -525 122 -122 132 -136 118 -150 -14 -14 -107 -16 -874 -16 -724 0 -861 2 -875 14 -15 13 -8 23 82 107 237 222 321 382 308 581 -5 68 -3 94 6 100 33 21 929 22 956 0z"/> <path d="M4470 6238 c-14 -6 -56 -26 -95 -43 -38 -18 -101 -48 -140 -65 -38 -18 -117 -55 -175 -82 -109 -52 -227 -107 -295 -138 -100 -46 -188 -86 -285 -132 -58 -27 -125 -59 -150 -70 -125 -56 -328 -159 -354 -179 -58 -46 -56 -15 -56 -921 1 -458 5 -853 10 -878 6 -32 18 -53 42 -73 27 -23 346 -187 363 -187 3 0 47 -20 98 -44 218 -103 289 -136 293 -136 2 0 48 -21 102 -46 148 -71 250 -118 327 -154 39 -18 106 -49 150 -70 171 -82 199 -92 250 -92 56 0 66 4 398 161 59 28 110 51 113 51 2 0 74 34 160 75 86 41 157 75 159 75 3 0 40 17 245 112 36 17 90 42 120 55 182 83 378 184 396 204 42 48 44 79 44 936 1 856 1 855 -43 915 -18 24 -116 78 -292 158 -111 51 -212 99 -315 147 -52 25 -113 53 -135 63 -73 33 -159 72 -280 130 -130 62 -182 86 -320 149 -49 23 -98 46 -109 52 -61 35 -176 49 -226 27z m166 -364 c33 -14 92 -41 132 -60 39 -19 107 -50 150 -70 42 -20 115 -55 162 -77 47 -22 112 -52 145 -67 242 -110 342 -160 356 -176 9 -11 8 -18 -2 -30 -12 -15 -131 -75 -289 -147 -30 -13 -80 -36 -110 -50 -30 -14 -85 -39 -122 -56 -206 -94 -369 -170 -392 -183 -10 -5 -41 -16 -67 -24 -43 -13 -55 -13 -98 0 -26 8 -57 19 -67 24 -11 6 -48 24 -84 40 -67 31 -170 79 -320 150 -47 22 -116 54 -155 72 -333 153 -362 170 -350 201 3 8 29 25 58 38 28 13 95 44 147 69 52 24 149 69 215 99 66 30 161 74 210 97 50 24 124 59 165 77 41 19 101 48 135 65 75 39 107 41 181 8z m-1296 -769 c32 -13 109 -49 172 -79 62 -29 138 -65 168 -79 105 -48 196 -89 275 -127 95 -45 209 -98 323 -151 63 -29 85 -45 93 -66 12 -32 16 -1149 4 -1195 -11 -41 -46 -36 -172 23 -116 55 -234 110 -298 139 -224 101 -452 207 -575 269 l-75 37 -3 608 c-2 568 1 646 24 646 2 0 31 -11 64 -25z m2518 -601 c3 -508 2 -598 -11 -617 -15 -23 -41 -37 -182 -102 -158 -72 -328 -152 -410 -190 -38 -18 -95 -44 -125 -58 -63 -29 -236 -109 -296 -138 -22 -10 -55 -19 -72 -19 l-32 0 0 613 c0 573 1 615 18 628 9 8 46 29 82 46 87 42 260 123 265 123 2 0 68 31 147 69 78 38 168 80 198 94 30 13 91 42 135 62 224 106 249 115 265 99 13 -13 15 -97 18 -610z"/> <path d="M2239 5096 c-72 -60 -397 -387 -422 -426 -24 -35 -22 -117 3 -158 20 -33 363 -382 432 -440 49 -40 95 -53 150 -40 72 16 118 74 118 148 0 63 -22 99 -126 207 -167 174 -184 192 -184 203 0 6 67 80 149 165 121 124 151 161 157 190 22 117 -45 205 -157 205 -52 0 -59 -3 -120 -54z"/> <path d="M6656 5131 c-47 -31 -66 -69 -66 -134 0 -73 -2 -69 207 -289 51 -54 93 -106 93 -115 0 -10 -55 -74 -122 -143 -168 -174 -178 -188 -178 -265 0 -58 3 -65 38 -105 31 -35 45 -43 84 -47 97 -11 102 -8 315 200 238 233 283 290 283 357 0 66 -27 100 -248 319 -232 230 -248 241 -321 241 -38 0 -65 -6 -85 -19z"/> <path d="M3696 1977 c-76 -43 -96 -143 -45 -226 80 -131 289 -67 289 89 0 120 -138 198 -244 137z"/> <path d="M4475 1984 c-81 -41 -107 -163 -51 -237 37 -48 73 -67 128 -67 97 1 171 72 172 166 1 74 -88 153 -174 153 -25 0 -59 -7 -75 -15z"/> <path d="M5239 1977 c-51 -34 -71 -80 -65 -151 5 -62 31 -102 88 -132 61 -32 147 -10 193 50 33 44 36 143 5 186 -50 71 -153 93 -221 47z"/> </g> </svg> 